<svg width="16" height="16" viewBox="0 0 16 16" fill="none" xmlns="http://www.w3.org/2000/svg">
<path d="M11 0.75C11.4142 0.75 11.75 1.08579 11.75 1.5V2.25H12.5C13.7426 2.25 14.75 3.25736 14.75 4.5V12.5C14.75 13.7426 13.7426 14.75 12.5 14.75H3.5C2.25736 14.75 1.25 13.7426 1.25 12.5V4.5C1.25 3.25736 2.25736 2.25 3.5 2.25H4.25V1.5C4.25 1.08579 4.58579 0.75 5 0.75C5.41421 0.75 5.75 1.08579 5.75 1.5V2.25H10.25V1.5C10.25 1.08579 10.5858 0.75 11 0.75ZM13.25 5.25V4.5C13.25 4.08579 12.9142 3.75 12.5 3.75H3.5C3.08579 3.75 2.75 4.08579 2.75 4.5V5.25H13.25ZM2.75 6.75V12.5C2.75 12.9142 3.08579 13.25 3.5 13.25H12.5C12.9142 13.25 13.25 12.9142 13.25 12.5V6.75H2.75Z" fill="#333333"/>
</svg>
