<svg width="16" height="16" viewBox="0 0 16 16" fill="none" xmlns="http://www.w3.org/2000/svg">
<path d="M1.25 3.5C1.25 2.25736 2.25736 1.25 3.5 1.25H12.5C13.7426 1.25 14.75 2.25736 14.75 3.5V12.5C14.75 13.7426 13.7426 14.75 12.5 14.75H3.5C2.25736 14.75 1.25 13.7426 1.25 12.5V3.5ZM12.0303 6.03033C12.3232 5.73744 12.3232 5.26256 12.0303 4.96967C11.7374 4.67678 11.2626 4.67678 10.9697 4.96967L7 8.93934L5.03033 6.96967C4.73744 6.67678 4.26256 6.67678 3.96967 6.96967C3.67678 7.26256 3.67678 7.73744 3.96967 8.03033L6.46967 10.5303C6.76256 10.8232 7.23744 10.8232 7.53033 10.5303L12.0303 6.03033Z" fill="#177b8f"/>
</svg>
