

<svg width="15" height="16" viewBox="0 0 15 16" fill="none" xmlns="http://www.w3.org/2000/svg">
    <path d="M7.00067 2.25C5.25848 2.25 3.6968 3.02441 2.64156 4.25H4.00067C4.41489 4.25 4.75067 4.58579 4.75067 5C4.75067 5.41421 4.41489 5.75 4.00067 5.75H1.00067C0.586458 5.75 0.250671 5.41421 0.250671 5V2C0.250671 1.58579 0.586458 1.25 1.00067 1.25C1.41489 1.25 1.75067 1.58579 1.75067 2V3.00008C3.07057 1.61469 4.93448 0.75 7.00067 0.75C11.0047 0.75 14.2507 3.99594 14.2507 8C14.2507 12.0041 11.0047 15.25 7.00067 15.25C3.77379 15.25 1.04113 13.1424 0.100483 10.2306C-0.026848 9.8364 0.189457 9.41365 0.583615 9.28632C0.977772 9.15899 1.40052 9.37529 1.52785 9.76945C2.27432 12.0802 4.44347 13.75 7.00067 13.75C10.1763 13.75 12.7507 11.1756 12.7507 8C12.7507 4.82436 10.1763 2.25 7.00067 2.25Z" fill="#177B8F"/>
    <path d="M7.75067 4.5C7.75067 4.08579 7.41489 3.75 7.00067 3.75C6.58646 3.75 6.25067 4.08579 6.25067 4.5V8C6.25067 8.19891 6.32969 8.38968 6.47034 8.53033L8.47034 10.5303C8.76323 10.8232 9.23811 10.8232 9.531 10.5303C9.82389 10.2374 9.82389 9.76256 9.531 9.46967L7.75067 7.68934V4.5Z" fill="#177B8F"/>
</svg>
