<svg width="14" height="14" viewBox="0 0 14 14" fill="none" xmlns="http://www.w3.org/2000/svg">
<path d="M7.75061 1.5C7.75061 1.08579 7.41482 0.75 7.00061 0.75C6.58639 0.75 6.25061 1.08579 6.25061 1.5V6.25H1.50061C1.08639 6.25 0.75061 6.58579 0.75061 7C0.75061 7.41421 1.08639 7.75 1.50061 7.75H6.25061V12.5C6.25061 12.9142 6.58639 13.25 7.00061 13.25C7.41482 13.25 7.75061 12.9142 7.75061 12.5V7.75H12.5006C12.9148 7.75 13.2506 7.41421 13.2506 7C13.2506 6.58579 12.9148 6.25 12.5006 6.25H7.75061V1.5Z" fill="white"/>
</svg>
