<svg width="16" height="16" viewBox="0 0 16 16" fill="none" xmlns="http://www.w3.org/2000/svg">
    <path d="M5.5 1.25C3.42893 1.25 1.75 2.92893 1.75 5C1.75 7.07107 3.42893 8.75 5.5 8.75C7.57107 8.75 9.25 7.07107 9.25 5C9.25 2.92893 7.57107 1.25 5.5 1.25ZM3.25 5C3.25 3.75736 4.25736 2.75 5.5 2.75C6.74264 2.75 7.75 3.75736 7.75 5C7.75 6.24264 6.74264 7.25 5.5 7.25C4.25736 7.25 3.25 6.24264 3.25 5Z" fill="#333333"/>
    <path d="M13.25 6.25C13.25 5.83579 12.9142 5.5 12.5 5.5C12.0858 5.5 11.75 5.83579 11.75 6.25V7.75H10.25C9.83579 7.75 9.5 8.08579 9.5 8.5C9.5 8.91421 9.83579 9.25 10.25 9.25H11.75V10.75C11.75 11.1642 12.0858 11.5 12.5 11.5C12.9142 11.5 13.25 11.1642 13.25 10.75V9.25H14.75C15.1642 9.25 15.5 8.91421 15.5 8.5C15.5 8.08579 15.1642 7.75 14.75 7.75H13.25V6.25Z" fill="#333333"/>
    <path d="M2.60514 12.0762C2.04258 12.545 1.75 13.2003 1.75 14C1.75 14.4142 1.41421 14.75 1 14.75C0.585786 14.75 0.25 14.4142 0.25 14C0.25 12.7997 0.707423 11.705 1.64486 10.9238C2.56824 10.1544 3.88237 9.75 5.5 9.75C7.11763 9.75 8.43176 10.1544 9.35514 10.9238C10.2926 11.705 10.75 12.7997 10.75 14C10.75 14.4142 10.4142 14.75 10 14.75C9.58579 14.75 9.25 14.4142 9.25 14C9.25 13.2003 8.95742 12.545 8.39486 12.0762C7.81824 11.5956 6.88237 11.25 5.5 11.25C4.11763 11.25 3.18176 11.5956 2.60514 12.0762Z" fill="#333333"/>
</svg>
